<?xml version="1.0" standalone="no"?>
<svg width="567.429" height="423.801" viewBox="0 0 567.429 423.801" xmlns="http://www.w3.org/2000/svg" shape-rendering="crispEdges">
<title>
/home/chiara/dev/haskell/prism_interferometer/plotting/cauchy.svg
</title>
<desc>
Creator: ROOT Version 6.32.04
CreationDate: Fri Nov  8 11:13:36 2024</desc>
<defs>
</defs>
<rect x="0.5" y="0" width="566.929" height="423.301" fill="white"/>
<rect x="57.1929" y="42.3301" width="453.543" height="338.641" fill="white"/>
<rect x="57.1929" y="42.3301" width="453.543" height="338.641" fill="none" stroke="black"/>
<rect x="57.1929" y="42.3301" width="453.543" height="338.641" fill="white"/>
<rect x="57.1929" y="42.3301" width="453.543" height="338.641" fill="none" stroke="black"/>
<path d="M57.1929,380.971h 453.543" fill="none" stroke="black"/>
<path d="M79.547,42.3301v 338.641" fill="none" stroke="black" stroke-dasharray=" 1, 2"/>
<path d="M133.189,42.3301v 338.641" fill="none" stroke="black" stroke-dasharray=" 1, 2"/>
<path d="M186.831,42.3301v 338.641" fill="none" stroke="black" stroke-dasharray=" 1, 2"/>
<path d="M240.473,42.3301v 338.641" fill="none" stroke="black" stroke-dasharray=" 1, 2"/>
<path d="M294.114,42.3301v 338.641" fill="none" stroke="black" stroke-dasharray=" 1, 2"/>
<path d="M347.756,42.3301v 338.641" fill="none" stroke="black" stroke-dasharray=" 1, 2"/>
<path d="M401.398,42.3301v 338.641" fill="none" stroke="black" stroke-dasharray=" 1, 2"/>
<path d="M455.04,42.3301v 338.641" fill="none" stroke="black" stroke-dasharray=" 1, 2"/>
<path d="M508.682,42.3301v 338.641" fill="none" stroke="black" stroke-dasharray=" 1, 2"/>
<path d="M79.547,42.3301v 338.641" fill="none" stroke="black" stroke-dasharray=" 1, 2"/>
<path d="M508.682,42.3301v 338.641" fill="none" stroke="black" stroke-dasharray=" 1, 2"/>
<path d="M57.1929,380.971v -338.641" fill="none" stroke="black"/>
<path d="M510.736,352.74h -453.543" fill="none" stroke="black" stroke-dasharray=" 1, 2"/>
<path d="M510.736,314.107h -453.543" fill="none" stroke="black" stroke-dasharray=" 1, 2"/>
<path d="M510.736,275.474h -453.543" fill="none" stroke="black" stroke-dasharray=" 1, 2"/>
<path d="M510.736,236.841h -453.543" fill="none" stroke="black" stroke-dasharray=" 1, 2"/>
<path d="M510.736,198.208h -453.543" fill="none" stroke="black" stroke-dasharray=" 1, 2"/>
<path d="M510.736,159.575h -453.543" fill="none" stroke="black" stroke-dasharray=" 1, 2"/>
<path d="M510.736,120.942h -453.543" fill="none" stroke="black" stroke-dasharray=" 1, 2"/>
<path d="M510.736,82.3093h -453.543" fill="none" stroke="black" stroke-dasharray=" 1, 2"/>
<path d="M510.736,43.6764h -453.543" fill="none" stroke="black" stroke-dasharray=" 1, 2"/>
<path d="M510.736,352.74h -453.543" fill="none" stroke="black" stroke-dasharray=" 1, 2"/>
<path d="M510.736,43.6764h -453.543" fill="none" stroke="black" stroke-dasharray=" 1, 2"/>
<path d="M57.1929,380.971h 453.543" fill="none" stroke="black"/>
<path d="M79.547,370.811v 10.1592" fill="none" stroke="black"/>
<path d="M90.2753,375.891v 5.07961" fill="none" stroke="black"/>
<path d="M101.004,375.891v 5.07961" fill="none" stroke="black"/>
<path d="M111.732,375.891v 5.07961" fill="none" stroke="black"/>
<path d="M122.46,375.891v 5.07961" fill="none" stroke="black"/>
<path d="M133.189,370.811v 10.1592" fill="none" stroke="black"/>
<path d="M143.917,375.891v 5.07961" fill="none" stroke="black"/>
<path d="M154.646,375.891v 5.07961" fill="none" stroke="black"/>
<path d="M165.374,375.891v 5.07961" fill="none" stroke="black"/>
<path d="M176.102,375.891v 5.07961" fill="none" stroke="black"/>
<path d="M186.831,370.811v 10.1592" fill="none" stroke="black"/>
<path d="M197.559,375.891v 5.07961" fill="none" stroke="black"/>
<path d="M208.287,375.891v 5.07961" fill="none" stroke="black"/>
<path d="M219.016,375.891v 5.07961" fill="none" stroke="black"/>
<path d="M229.744,375.891v 5.07961" fill="none" stroke="black"/>
<path d="M240.473,370.811v 10.1592" fill="none" stroke="black"/>
<path d="M251.201,375.891v 5.07961" fill="none" stroke="black"/>
<path d="M261.929,375.891v 5.07961" fill="none" stroke="black"/>
<path d="M272.658,375.891v 5.07961" fill="none" stroke="black"/>
<path d="M283.386,375.891v 5.07961" fill="none" stroke="black"/>
<path d="M294.114,370.811v 10.1592" fill="none" stroke="black"/>
<path d="M304.843,375.891v 5.07961" fill="none" stroke="black"/>
<path d="M315.571,375.891v 5.07961" fill="none" stroke="black"/>
<path d="M326.3,375.891v 5.07961" fill="none" stroke="black"/>
<path d="M337.028,375.891v 5.07961" fill="none" stroke="black"/>
<path d="M347.756,370.811v 10.1592" fill="none" stroke="black"/>
<path d="M358.485,375.891v 5.07961" fill="none" stroke="black"/>
<path d="M369.213,375.891v 5.07961" fill="none" stroke="black"/>
<path d="M379.941,375.891v 5.07961" fill="none" stroke="black"/>
<path d="M390.67,375.891v 5.07961" fill="none" stroke="black"/>
<path d="M401.398,370.811v 10.1592" fill="none" stroke="black"/>
<path d="M412.127,375.891v 5.07961" fill="none" stroke="black"/>
<path d="M422.855,375.891v 5.07961" fill="none" stroke="black"/>
<path d="M433.583,375.891v 5.07961" fill="none" stroke="black"/>
<path d="M444.312,375.891v 5.07961" fill="none" stroke="black"/>
<path d="M455.04,370.811v 10.1592" fill="none" stroke="black"/>
<path d="M465.768,375.891v 5.07961" fill="none" stroke="black"/>
<path d="M476.497,375.891v 5.07961" fill="none" stroke="black"/>
<path d="M487.225,375.891v 5.07961" fill="none" stroke="black"/>
<path d="M497.954,375.891v 5.07961" fill="none" stroke="black"/>
<path d="M508.682,370.811v 10.1592" fill="none" stroke="black"/>
<path d="M79.547,370.811v 10.1592" fill="none" stroke="black"/>
<path d="M68.8186,375.891v 5.07961" fill="none" stroke="black"/>
<path d="M58.0902,375.891v 5.07961" fill="none" stroke="black"/>
<path d="M508.682,370.811v 10.1592" fill="none" stroke="black"/>
<text xml:space="preserve" x="72.3142" y="394.859" fill="black" font-size="14.0922" font-family="Helvetica">25
</text>
<text xml:space="preserve" x="125.879" y="394.859" fill="black" font-size="14.0922" font-family="Helvetica">30
</text>
<text xml:space="preserve" x="179.443" y="394.859" fill="black" font-size="14.0922" font-family="Helvetica">35
</text>
<text xml:space="preserve" x="233.007" y="394.859" fill="black" font-size="14.0922" font-family="Helvetica">40
</text>
<text xml:space="preserve" x="286.809" y="394.859" fill="black" font-size="14.0922" font-family="Helvetica">45
</text>
<text xml:space="preserve" x="340.373" y="394.859" fill="black" font-size="14.0922" font-family="Helvetica">50
</text>
<text xml:space="preserve" x="393.937" y="394.859" fill="black" font-size="14.0922" font-family="Helvetica">55
</text>
<text xml:space="preserve" x="447.739" y="394.859" fill="black" font-size="14.0922" font-family="Helvetica">60
</text>
<text xml:space="preserve" x="501.303" y="394.859" fill="black" font-size="14.0922" font-family="Helvetica">65
</text>
<text xml:space="preserve" x="539.462" y="374.477" fill="black" font-size="9.56148" font-family="Helvetica">9
</text>
<text xml:space="preserve" x="534.722" y="374.477" fill="black" font-size="9.56148" font-family="Times">&#8722;
</text>
<text xml:space="preserve" x="520.027" y="380.876" fill="black" font-size="14.0922" font-family="Helvetica">10
</text>
<text xml:space="preserve" x="512.68" y="380.876" fill="black" font-size="14.0922" font-family="Times">&#0215;
</text>
<text xml:space="preserve" x="306.481" y="410.502" fill="black" font-size="14.0922" font-family="Helvetica">]
</text>
<text xml:space="preserve" x="298.659" y="402.444" fill="black" font-size="9.56148" font-family="Helvetica">-2
</text>
<text xml:space="preserve" x="289.653" y="410.502" fill="black" font-size="14.0922" font-family="Helvetica">&#8491;
</text>
<text xml:space="preserve" x="282.305" y="410.502" fill="black" font-size="14.0922" font-family="Helvetica"> [
</text>
<text xml:space="preserve" x="277.565" y="404.34" fill="black" font-size="9.56148" font-family="Helvetica">2
</text>
<text xml:space="preserve" x="269.981" y="410.502" fill="black" font-size="14.0922" font-family="Times">&#0955;
</text>
<text xml:space="preserve" x="258.367" y="410.502" fill="black" font-size="14.0922" font-family="Helvetica">1/
</text>
<path d="M57.1929,380.971v -338.641" fill="none" stroke="black"/>
<path d="M70.7992,352.74h -13.6063" fill="none" stroke="black"/>
<path d="M63.9961,345.014h -6.80315" fill="none" stroke="black"/>
<path d="M63.9961,337.287h -6.80315" fill="none" stroke="black"/>
<path d="M63.9961,329.56h -6.80315" fill="none" stroke="black"/>
<path d="M63.9961,321.834h -6.80315" fill="none" stroke="black"/>
<path d="M70.7992,314.107h -13.6063" fill="none" stroke="black"/>
<path d="M63.9961,306.381h -6.80315" fill="none" stroke="black"/>
<path d="M63.9961,298.654h -6.80315" fill="none" stroke="black"/>
<path d="M63.9961,290.927h -6.80315" fill="none" stroke="black"/>
<path d="M63.9961,283.201h -6.80315" fill="none" stroke="black"/>
<path d="M70.7992,275.474h -13.6063" fill="none" stroke="black"/>
<path d="M63.9961,267.748h -6.80315" fill="none" stroke="black"/>
<path d="M63.9961,260.021h -6.80315" fill="none" stroke="black"/>
<path d="M63.9961,252.294h -6.80315" fill="none" stroke="black"/>
<path d="M63.9961,244.568h -6.80315" fill="none" stroke="black"/>
<path d="M70.7992,236.841h -13.6063" fill="none" stroke="black"/>
<path d="M63.9961,229.115h -6.80315" fill="none" stroke="black"/>
<path d="M63.9961,221.388h -6.80315" fill="none" stroke="black"/>
<path d="M63.9961,213.661h -6.80315" fill="none" stroke="black"/>
<path d="M63.9961,205.935h -6.80315" fill="none" stroke="black"/>
<path d="M70.7992,198.208h -13.6063" fill="none" stroke="black"/>
<path d="M63.9961,190.482h -6.80315" fill="none" stroke="black"/>
<path d="M63.9961,182.755h -6.80315" fill="none" stroke="black"/>
<path d="M63.9961,175.028h -6.80315" fill="none" stroke="black"/>
<path d="M63.9961,167.302h -6.80315" fill="none" stroke="black"/>
<path d="M70.7992,159.575h -13.6063" fill="none" stroke="black"/>
<path d="M63.9961,151.849h -6.80315" fill="none" stroke="black"/>
<path d="M63.9961,144.122h -6.80315" fill="none" stroke="black"/>
<path d="M63.9961,136.396h -6.80315" fill="none" stroke="black"/>
<path d="M63.9961,128.669h -6.80315" fill="none" stroke="black"/>
<path d="M70.7992,120.942h -13.6063" fill="none" stroke="black"/>
<path d="M63.9961,113.216h -6.80315" fill="none" stroke="black"/>
<path d="M63.9961,105.489h -6.80315" fill="none" stroke="black"/>
<path d="M63.9961,97.7625h -6.80315" fill="none" stroke="black"/>
<path d="M63.9961,90.0359h -6.80315" fill="none" stroke="black"/>
<path d="M70.7992,82.3093h -13.6063" fill="none" stroke="black"/>
<path d="M63.9961,74.5827h -6.80315" fill="none" stroke="black"/>
<path d="M63.9961,66.8562h -6.80315" fill="none" stroke="black"/>
<path d="M63.9961,59.1296h -6.80315" fill="none" stroke="black"/>
<path d="M63.9961,51.403h -6.80315" fill="none" stroke="black"/>
<path d="M70.7992,43.6764h -13.6063" fill="none" stroke="black"/>
<path d="M70.7992,352.74h -13.6063" fill="none" stroke="black"/>
<path d="M63.9961,360.467h -6.80315" fill="none" stroke="black"/>
<path d="M63.9961,368.193h -6.80315" fill="none" stroke="black"/>
<path d="M63.9961,375.92h -6.80315" fill="none" stroke="black"/>
<path d="M70.7992,43.6764h -13.6063" fill="none" stroke="black"/>
<text xml:space="preserve" x="27.9932" y="357.886" fill="black" font-size="14.0922" font-family="Helvetica">1.77
</text>
<text xml:space="preserve" x="27.9932" y="319.016" fill="black" font-size="14.0922" font-family="Helvetica">1.78
</text>
<text xml:space="preserve" x="27.9932" y="280.383" fill="black" font-size="14.0922" font-family="Helvetica">1.79
</text>
<text xml:space="preserve" x="35.5776" y="241.751" fill="black" font-size="14.0922" font-family="Helvetica">1.8
</text>
<text xml:space="preserve" x="30.3633" y="203.118" fill="black" font-size="14.0922" font-family="Helvetica">1.81
</text>
<text xml:space="preserve" x="27.9932" y="164.485" fill="black" font-size="14.0922" font-family="Helvetica">1.82
</text>
<text xml:space="preserve" x="28.2302" y="125.853" fill="black" font-size="14.0922" font-family="Helvetica">1.83
</text>
<text xml:space="preserve" x="27.9932" y="87.2199" fill="black" font-size="14.0922" font-family="Helvetica">1.84
</text>
<text xml:space="preserve" x="27.9932" y="48.5872" fill="black" font-size="14.0922" font-family="Helvetica">1.85
</text>
<g transform="rotate(-90,14.7206,203.592)">
<text xml:space="preserve" x="14.7206" y="203.592" fill="black" font-size="14.0922" font-family="Helvetica">)
</text>
</g>
<g transform="rotate(-90,14.7206,211.176)">
<text xml:space="preserve" x="14.7206" y="211.176" fill="black" font-size="14.0922" font-family="Times">&#0955;
</text>
</g>
<g transform="rotate(-90,14.7206,223.027)">
<text xml:space="preserve" x="14.7206" y="223.027" fill="black" font-size="14.0922" font-family="Helvetica">n(
</text>
</g>
<g stroke="black" stroke-width="1" fill="none">
<line x1="469.463" y1="76.1698" x2="470.463" y2="76.1698"/>
<line x1="456.388" y1="84.4964" x2="457.388" y2="84.4964"/>
<line x1="376.423" y1="142.23" x2="377.423" y2="142.23"/>
<line x1="246.422" y1="220.504" x2="247.422" y2="220.504"/>
<line x1="172.954" y1="270.639" x2="173.954" y2="270.639"/>
<line x1="135.892" y1="291.807" x2="136.892" y2="291.807"/>
<line x1="133.648" y1="293.271" x2="134.648" y2="293.271"/>
<line x1="93.9882" y1="346.072" x2="94.9882" y2="346.072"/>
</g>
<path d="M59.4606,351.176l 4.53543, -3.04072l 4.53543, -3.04072l 4.53543, -3.04072l 4.53543, -3.04072l 4.53543, -3.04072l 4.53543, -3.04072l 4.53543, -3.04072l 4.53543, -3.04072l 4.53543, -3.04072l 4.53543, -3.04072l 4.53543, -3.04072l 4.53543,
 -3.04072l 4.53543, -3.04072l 4.53543, -3.04072l 4.53543, -3.04072l 4.53543, -3.04072l 4.53543, -3.04072l 4.53543, -3.04072l 4.53543, -3.04072l 4.53543, -3.04072l 4.53543, -3.04072l 4.53543, -3.04072l 4.53543, -3.04072l 4.53543, -3.04072l 4.53543,
 -3.04072l 4.53543, -3.04072l 4.53543, -3.04072l 4.53543, -3.04072l 4.53543, -3.04072l 4.53543, -3.04072l 4.53543, -3.04072l 4.53543, -3.04072l 4.53543, -3.04072l 4.53543, -3.04072l 4.53543, -3.04072l 4.53543, -3.04072l 4.53543, -3.04072l 4.53543,
 -3.04072l 4.53543, -3.04072l 4.53543, -3.04072l 4.53543, -3.04072l 4.53543, -3.04072l 4.53543, -3.04072l 4.53543, -3.04072l 4.53543, -3.04072l 4.53543, -3.04072l 4.53543, -3.04072l 4.53543, -3.04072l 4.53543, -3.04072" fill="none" stroke="#ff0000"
 stroke-width="2"/>
<path d="M281.697,202.181l 4.53543, -3.04072l 4.53543, -3.04072l 4.53543, -3.04072l 4.53543, -3.04072l 4.53543, -3.04072l 4.53543, -3.04072l 4.53543, -3.04072l 4.53543, -3.04072l 4.53543, -3.04072l 4.53543, -3.04072l 4.53543, -3.04072l 4.53543,
 -3.04072l 4.53543, -3.04072l 4.53543, -3.04072l 4.53543, -3.04072l 4.53543, -3.04072l 4.53543, -3.04072l 4.53543, -3.04072l 4.53543, -3.04072l 4.53543, -3.04072l 4.53543, -3.04072l 4.53543, -3.04072l 4.53543, -3.04072l 4.53543, -3.04072l 4.53543,
 -3.04072l 4.53543, -3.04072l 4.53543, -3.04072l 4.53543, -3.04072l 4.53543, -3.04072l 4.53543, -3.04072l 4.53543, -3.04072l 4.53543, -3.04072l 4.53543, -3.04072l 4.53543, -3.04072l 4.53543, -3.04072l 4.53543, -3.04072l 4.53543, -3.04072l 4.53543,
 -3.04072l 4.53543, -3.04072l 4.53543, -3.04072l 4.53543, -3.04072l 4.53543, -3.04072l 4.53543, -3.04072l 4.53543, -3.04072l 4.53543, -3.04072l 4.53543, -3.04072l 4.53543, -3.04072l 4.53543, -3.04072l 4.53543, -3.04072" fill="none" stroke="#ff0000"
 stroke-width="2"/>
<path d="M503.933,53.1852l 4.53543, -3.04072" fill="none" stroke="#ff0000" stroke-width="2"/>
<path d="M470.463,76.1698h -2.47771" fill="none" stroke="black"/>
<path d="M470.463,76.1698h 2.47771" fill="none" stroke="black"/>
<path d="M467.986,76.6438v -0.948042" fill="none" stroke="black"/>
<path d="M472.941,76.6438v -0.948042" fill="none" stroke="black"/>
<path d="M470.463,76.1698v -5.61966" fill="none" stroke="black"/>
<path d="M470.463,76.1698v 5.61966" fill="none" stroke="black"/>
<path d="M469.989,70.5501h 0.948042" fill="none" stroke="black"/>
<path d="M469.989,81.7895h 0.948042" fill="none" stroke="black"/>
<path d="M457.388,84.4964h -1.93827" fill="none" stroke="black"/>
<path d="M457.388,84.4964h 1.93827" fill="none" stroke="black"/>
<path d="M455.45,84.9704v -0.948042" fill="none" stroke="black"/>
<path d="M459.326,84.9704v -0.948042" fill="none" stroke="black"/>
<path d="M457.388,84.4964v -5.65595" fill="none" stroke="black"/>
<path d="M457.388,84.4964v 5.65595" fill="none" stroke="black"/>
<path d="M456.914,78.8404h 0.948042" fill="none" stroke="black"/>
<path d="M456.914,90.1523h 0.948042" fill="none" stroke="black"/>
<path d="M377.423,142.23h -1.96968" fill="none" stroke="black"/>
<path d="M377.423,142.23h 1.96968" fill="none" stroke="black"/>
<path d="M375.454,142.704v -0.948042" fill="none" stroke="black"/>
<path d="M379.393,142.704v -0.948042" fill="none" stroke="black"/>
<path d="M377.423,142.23v -5.90038" fill="none" stroke="black"/>
<path d="M377.423,142.23v 5.90038" fill="none" stroke="black"/>
<path d="M376.949,136.33h 0.948042" fill="none" stroke="black"/>
<path d="M376.949,148.131h 0.948042" fill="none" stroke="black"/>
<path d="M247.422,220.504v -6.21354" fill="none" stroke="black"/>
<path d="M247.422,220.504v 6.21354" fill="none" stroke="black"/>
<path d="M246.948,214.29h 0.948042" fill="none" stroke="black"/>
<path d="M246.948,226.717h 0.948042" fill="none" stroke="black"/>
<path d="M173.954,270.639h -1.78842" fill="none" stroke="black"/>
<path d="M173.954,270.639h 1.78842" fill="none" stroke="black"/>
<path d="M172.166,271.113v -0.948042" fill="none" stroke="black"/>
<path d="M175.743,271.113v -0.948042" fill="none" stroke="black"/>
<path d="M173.954,270.639v -6.40439" fill="none" stroke="black"/>
<path d="M173.954,270.639v 6.40439" fill="none" stroke="black"/>
<path d="M173.48,264.234h 0.948042" fill="none" stroke="black"/>
<path d="M173.48,277.043h 0.948042" fill="none" stroke="black"/>
<path d="M136.892,291.807h -1.76581" fill="none" stroke="black"/>
<path d="M136.892,291.807h 1.76581" fill="none" stroke="black"/>
<path d="M135.126,292.282v -0.948042" fill="none" stroke="black"/>
<path d="M138.658,292.282v -0.948042" fill="none" stroke="black"/>
<path d="M136.892,291.807v -6.48289" fill="none" stroke="black"/>
<path d="M136.892,291.807v 6.48289" fill="none" stroke="black"/>
<path d="M136.418,285.325h 0.948042" fill="none" stroke="black"/>
<path d="M136.418,298.29h 0.948042" fill="none" stroke="black"/>
<path d="M134.648,293.271h -1.74081" fill="none" stroke="black"/>
<path d="M134.648,293.271h 1.74081" fill="none" stroke="black"/>
<path d="M132.907,293.745v -0.948042" fill="none" stroke="black"/>
<path d="M136.388,293.745v -0.948042" fill="none" stroke="black"/>
<path d="M134.648,293.271v -6.48828" fill="none" stroke="black"/>
<path d="M134.648,293.271v 6.48828" fill="none" stroke="black"/>
<path d="M134.174,286.783h 0.948042" fill="none" stroke="black"/>
<path d="M134.174,299.759h 0.948042" fill="none" stroke="black"/>
<path d="M94.9882,346.072v -6.67887" fill="none" stroke="black"/>
<path d="M94.9882,346.072v 6.67887" fill="none" stroke="black"/>
<path d="M94.5142,339.393h 0.948042" fill="none" stroke="black"/>
<path d="M94.5142,352.751h 0.948042" fill="none" stroke="black"/>
<rect x="85.5394" y="63.4951" width="85.0394" height="63.4951" fill="white"/>
<path d="M85.5394,126.99h 85.0394" fill="none" stroke="black"/>
<path d="M170.579,126.99v -63.4951" fill="none" stroke="black"/>
<path d="M170.579,63.4951h -85.0394" fill="none" stroke="black"/>
<path d="M85.5394,63.4951v 63.4951" fill="none" stroke="black"/>
<text xml:space="preserve" x="106.918" y="86.5088" fill="black" font-size="18.9825" font-family="Helvetica">dati
</text>
<path d="M88.7283,79.3689h 14.8819" fill="none" stroke="black"/>
<path d="M96.1693,88.8932v -19.0485" fill="none" stroke="black"/>
<path d="M94.6811,69.8446h 2.97638" fill="none" stroke="black"/>
<path d="M94.6811,88.8932h 2.97638" fill="none" stroke="black"/>
<text xml:space="preserve" x="106.918" y="118.268" fill="black" font-size="18.9825" font-family="Helvetica">fit
</text>
<path d="M88.7283,111.116h 14.8819" fill="none" stroke="#ff0000" stroke-width="2"/>
<text xml:space="preserve" x="159.297" y="20.3829" fill="black" font-size="20.3231" font-family="Helvetica">Approssimazione di Cauchy
</text></svg>
